<svg id="Layer_1" data-name="Layer 1" xmlns="http://www.w3.org/2000/svg" viewBox="0 0 309.08 520.72"><defs><style>.cls-1{fill:#ef4423;opacity:0.97;}</style></defs><g id="Phone"><path class="cls-1" d="M494.16,102.46H367.6l0-36.74a28.47,28.47,0,0,0-56.94,0l.05,45.79a81.48,81.48,0,0,0-44.28,72.28v152c0,44.75,7.33,113,16.28,151.75S335.56,558,380.31,558h81.27c44.75,0,88.68-32.58,97.63-72.35s16.28-109,16.28-153.73V183.82A81.58,81.58,0,0,0,494.16,102.46ZM421,496a32,32,0,1,1,32-32A32.06,32.06,0,0,1,421,496ZM521,290a16.31,16.31,0,0,1-16.25,16.27H337.23A16.32,16.32,0,0,1,321,290V188.1a16.3,16.3,0,0,1,16.27-16.27H504.75A16.29,16.29,0,0,1,521,188.1Z" transform="translate(-266.4 -37.28)"/></g></svg>